<svg width="15" height="14" viewBox="0 0 15 14" fill="none" xmlns="http://www.w3.org/2000/svg">
<path d="M4.3978 0.0179548C5.10239 0.093521 5.96416 0.524998 6.50826 0.998007C6.75943 1.21605 7.13096 1.78366 7.44698 1.79809C7.79158 1.81366 8.04934 1.35161 8.29171 1.13933C11.5448 -1.70853 16.1186 1.59677 14.7517 5.72926C14.2692 7.18866 12.8941 8.02047 12.0235 9.19665L7.44258 14C7.40191 13.989 7.38872 13.8829 7.33596 13.8258C5.32498 11.6638 2.95235 9.45738 1.07877 7.21116C-1.11084 4.58596 0.19721 0.368674 3.52009 0.0179548C3.74488 -0.00569565 4.17356 -0.00627249 4.3978 0.0179548ZM3.89107 1.06377C3.49261 1.14049 3.29475 1.68387 3.60088 1.97575C3.73773 2.10612 4.29448 2.21572 4.47914 2.20822C5.04688 2.18399 5.16504 1.27201 4.52201 1.12491C4.41539 1.10069 3.98395 1.04646 3.89107 1.06434V1.06377ZM1.62012 6.26918C1.84491 6.48376 2.18236 6.45665 2.36923 6.204C2.66931 5.79848 2.32636 5.58389 2.17412 5.25625C1.7861 4.4181 1.93065 3.69358 2.37747 2.93331C2.5429 2.65239 2.8941 2.47184 2.58797 2.05939C2.02298 1.29854 1.3096 2.64777 1.14637 3.13809C0.910041 3.84702 0.876515 4.51904 1.09086 5.24125C1.15901 5.47141 1.46074 6.11805 1.61957 6.26918H1.62012Z" fill="white"/>
</svg>
