<?xml version="1.0" encoding="UTF-8"?>
<svg id="Layer_1" xmlns="http://www.w3.org/2000/svg" version="1.1" viewBox="0 0 192 192">
  <!-- Generator: Adobe Illustrator 30.0.0, SVG Export Plug-In . SVG Version: 2.1.1 Build 123)  -->
  <defs>
    <style>
      .st0 {
        fill: #fff;
      }

      .st1 {
        fill: #157da6;
      }

      .st2 {
        fill: #f6c039;
      }
    </style>
  </defs>
  <rect class="st2" width="192" height="192" rx="43.05" ry="43.05"/>
  <g>
    <path class="st1" d="M144.61,107.57l17.88-56.93-32.07,3.33-7.15,22.75c-2.35-5.97-8.03-9.99-14.94-9.99-2.48,0-4.94.45-7.31,1.3h-23.88l-1.27,3.63c-4.12,11.81-8.12,23.62-12.12,35.44l-.14.43-.53.06,17.88-56.93-32.07,3.33-27.45,87.39,58-6.02,6.24-19.87c4.4-12.07,8.6-19.12,11.68-22.74-.48.98-.98,1.98-1.44,2.86-2.8,5.5-6.29,12.34-6.29,19.27,0,9.8,6.53,16.47,16.35,16.85l-3.03,9.65,58-6.02,9.57-30.45-25.93,2.69Z"/>
    <path class="st0" d="M136.98,113.8l17.89-56.93-20.34,2.11-15.52,49.4c-3.01,3.19-5.96,5.43-7.93,5.43-1.43,0-2.21-1.04-2.21-2.74,0-5.6,10.29-19.02,10.16-28.39-.13-6.12-4.56-10.55-10.68-10.55s-13.15,4.04-17.84,11.98l3.65-10.68h-13.15c-4.54,13.03-8.94,26.07-13.36,39.11l-12.17,1.26,17.89-56.93-20.34,2.11-23.92,76.14,46.28-4.8,5.25-16.71c5.02-13.78,12.94-29.5,20.96-29.5,2.34,0,3.12,1.43,3.12,3.52,0,6.12-9.64,17.19-9.64,27.22,0,6.64,4.04,11.46,11.85,11.46,2.34,0,4.66-.52,6.9-1.38l-3.2,10.19,46.28-4.8,6.03-19.21-25.93,2.69Z"/>
  </g>
</svg>