<svg width="37" height="33" viewBox="0 0 37 33" fill="none" xmlns="http://www.w3.org/2000/svg">
<path d="M9.25 18.5L9.25 23.125L4.625 23.125L4.625 18.5L-8.08662e-07 18.5L-6.06496e-07 13.875L4.625 13.875L4.625 9.25L9.25 9.25L9.25 13.875L37 13.875L37 18.5L9.25 18.5ZM9.25 9.25L9.25 4.625L13.875 4.625L13.875 9.25L9.25 9.25ZM9.25 27.75L9.25 23.125L13.875 23.125L13.875 27.75L9.25 27.75ZM18.5 4.625L13.875 4.625L13.875 -1.01083e-06L18.5 -8.08661e-07L18.5 4.625ZM13.875 32.375L13.875 27.75L18.5 27.75L18.5 32.375L13.875 32.375Z" fill="black"/>
</svg>
