<svg width="37" height="33" viewBox="0 0 37 33" fill="none" xmlns="http://www.w3.org/2000/svg">
<path d="M27.75 18.5L27.75 23.125L32.375 23.125L32.375 18.5L37 18.5L37 13.875L32.375 13.875L32.375 9.25L27.75 9.25L27.75 13.875L6.06496e-07 13.875L8.08662e-07 18.5L27.75 18.5ZM27.75 9.25L27.75 4.625L23.125 4.625L23.125 9.25L27.75 9.25ZM27.75 27.75L27.75 23.125L23.125 23.125L23.125 27.75L27.75 27.75ZM18.5 4.625L23.125 4.625L23.125 -1.01083e-06L18.5 -8.08661e-07L18.5 4.625ZM23.125 32.375L23.125 27.75L18.5 27.75L18.5 32.375L23.125 32.375Z" fill="white"/>
</svg>
