<svg width="77" height="21" viewBox="0 0 77 21" fill="none" xmlns="http://www.w3.org/2000/svg">
<g clip-path="url(#clip0_118_1131)">
<path d="M80.5806 -8.91504H-4.73926V32.4906H80.5806V-8.91504Z" fill="white"/>
<path d="M13.6787 5.15043C12.76 4.67227 11.5611 4.43262 10.0822 4.43262H4.35632C3.90292 4.43262 3.65243 4.60428 3.60484 4.94721L1.27879 16.0009C1.25461 16.1094 1.29049 16.2087 1.38609 16.299C1.48115 16.3895 1.6007 16.4345 1.74389 16.4345H4.46362C4.94065 16.4345 5.20284 16.2632 5.25097 15.9197L5.89503 12.9397C5.91854 12.7953 6.00244 12.6779 6.14563 12.5875C6.2887 12.4972 6.46765 12.4381 6.68237 12.4111C6.8971 12.3842 7.09957 12.3707 7.29077 12.3707C7.48143 12.3707 7.70796 12.3799 7.97081 12.3978C8.23301 12.4159 8.40015 12.4247 8.47179 12.4247C10.5234 12.4247 12.1338 11.987 13.303 11.1108C14.4716 10.2349 15.0566 9.02028 15.0566 7.46674C15.0566 6.40112 14.597 5.62899 13.6787 5.15009V5.15043ZM10.7264 8.4695C10.6068 9.10177 10.297 9.51698 9.796 9.71573C9.29491 9.91473 8.57921 10.0136 7.64889 10.0136L6.46787 10.0408L7.07638 7.14179C7.12385 6.94329 7.27885 6.84392 7.54148 6.84392H8.22163C9.17546 6.84392 9.86776 6.94801 10.2972 7.15537C10.7264 7.36323 10.8696 7.80146 10.7264 8.4695Z" fill="#003087"/>
<path d="M74.1042 4.43262H71.4563C71.1932 4.43262 71.0383 4.53199 70.9911 4.73066L68.6648 16.0013L68.6289 16.0554C68.6289 16.1462 68.6767 16.2316 68.7723 16.3129C68.8673 16.394 68.987 16.4347 69.1301 16.4347H71.4923C71.9449 16.4347 72.1955 16.2635 72.2438 15.92L74.5699 4.83906V4.81214C74.5697 4.55932 74.4141 4.43287 74.1042 4.43287V4.43262Z" fill="#009CDE"/>
<path d="M42.1116 8.79505C42.1116 8.70495 42.0637 8.61899 41.9688 8.53784C41.873 8.4566 41.7656 8.41577 41.6466 8.41577H38.8911C38.6282 8.41577 38.4135 8.50653 38.2468 8.68665L34.4535 12.9133L32.879 8.84937C32.7591 8.56053 32.4969 8.41577 32.0917 8.41577H29.4074C29.2878 8.41577 29.1804 8.45651 29.0856 8.53784C28.9899 8.61899 28.9424 8.70503 28.9424 8.79505C28.9424 8.83148 29.175 9.36404 29.6401 10.3936C30.1053 11.4232 30.6063 12.5341 31.1432 13.7262C31.6801 14.9182 31.9601 15.5506 31.9841 15.6224C30.0277 17.6455 29.0498 18.7293 29.0498 18.8736C29.0498 19.1086 29.2048 19.2259 29.515 19.2259H32.2705C32.5329 19.2259 32.7475 19.1358 32.9148 18.955L42.0404 8.98452C42.0878 8.94866 42.1116 8.88573 42.1116 8.79496V8.79505Z" fill="#003087"/>
<path d="M67.7714 8.41579H65.0515C64.7173 8.41579 64.5151 8.71383 64.4435 9.30991C63.8225 8.58779 62.6899 8.22607 61.0435 8.22607C59.3257 8.22607 57.8642 8.71383 56.6597 9.68918C55.4547 10.6646 54.8525 11.8117 54.8525 13.1301C54.8525 14.1959 55.2639 15.0448 56.0869 15.6767C56.91 16.3093 58.0133 16.625 59.3976 16.625C60.0892 16.625 60.793 16.5164 61.5087 16.2998C62.2245 16.0831 62.7847 15.7943 63.1909 15.4329C63.1909 15.451 63.1666 15.5321 63.1194 15.6765C63.0712 15.8213 63.0477 15.9299 63.0477 16.0016C63.0477 16.291 63.2024 16.4351 63.5131 16.4351H65.9825C66.4351 16.4351 66.698 16.2638 66.7693 15.9203L68.2367 8.84915C68.2602 8.74075 68.2246 8.64154 68.1294 8.55111C68.0336 8.46109 67.9146 8.41579 67.7714 8.41579ZM63.1013 13.7531C62.4929 14.2047 61.7593 14.4305 60.9005 14.4305C60.2083 14.4305 59.6482 14.2862 59.2185 13.997C58.7888 13.7086 58.5741 13.3112 58.5741 12.8049C58.5741 12.1371 58.8724 11.5723 59.469 11.1117C60.0647 10.6511 60.805 10.4208 61.6878 10.4208C62.3552 10.4208 62.91 10.5699 63.3517 10.8678C63.7927 11.1658 64.014 11.5769 64.014 12.1006C64.0139 12.7508 63.7096 13.3018 63.1013 13.7531Z" fill="#009CDE"/>
<path d="M27.1173 8.41579H24.3976C24.0631 8.41579 23.8607 8.71383 23.7891 9.30991C23.1449 8.58779 22.0116 8.22607 20.3893 8.22607C18.6715 8.22607 17.21 8.71383 16.0054 9.68918C14.8004 10.6646 14.1982 11.8117 14.1982 13.1301C14.1982 14.1959 14.6099 15.0448 15.433 15.6767C16.2561 16.3093 17.3592 16.625 18.7432 16.625C19.4108 16.625 20.1031 16.5164 20.8187 16.2998C21.5344 16.0831 22.1071 15.7943 22.5365 15.4329C22.4408 15.6495 22.3933 15.8393 22.3933 16.0016C22.3933 16.291 22.5483 16.4351 22.8585 16.4351H25.3278C25.7807 16.4351 26.0435 16.2638 26.1151 15.9203L27.5823 8.84915C27.6058 8.74075 27.57 8.64154 27.475 8.55111C27.3795 8.46109 27.2604 8.41579 27.1173 8.41579ZM22.4471 13.7666C21.8386 14.2097 21.0927 14.4305 20.2106 14.4305C19.5183 14.4305 18.9636 14.2862 18.5464 13.997C18.1286 13.7086 17.92 13.3112 17.92 12.8049C17.92 12.1371 18.2181 11.5723 18.8148 11.1117C19.4108 10.6511 20.1505 10.4208 21.0336 10.4208C21.7012 10.4208 22.2559 10.5699 22.6977 10.8678C23.1388 11.1659 23.3597 11.577 23.3597 12.1007C23.3597 12.7689 23.0555 13.3245 22.4471 13.7666Z" fill="#003087"/>
<path d="M54.3331 5.15043C53.4145 4.67227 52.2159 4.43262 50.7367 4.43262H45.0465C44.5691 4.43262 44.3065 4.60428 44.2593 4.94721L41.9331 16.0009C41.9089 16.1095 41.9447 16.2088 42.0404 16.2991C42.135 16.3895 42.255 16.4345 42.3982 16.4345H45.3325C45.6188 16.4345 45.8096 16.3172 45.9052 16.0823L46.5494 12.9397C46.5731 12.7953 46.6566 12.6779 46.7999 12.5875C46.9431 12.4972 47.1219 12.4382 47.3368 12.4111C47.5514 12.3842 47.7538 12.3707 47.9452 12.3707C48.1358 12.3707 48.3624 12.3799 48.6249 12.3978C48.8873 12.4159 49.0549 12.4247 49.1259 12.4247C51.1779 12.4247 52.788 11.987 53.9572 11.1108C55.1263 10.2349 55.7107 9.02028 55.7107 7.46674C55.7109 6.40121 55.2514 5.62907 54.3331 5.15018V5.15043ZM50.665 9.60733C50.1401 9.87821 49.3527 10.0136 48.3032 10.0136L47.1579 10.0408L47.7663 7.14179C47.8136 6.94329 47.9686 6.84392 48.2314 6.84392H48.8754C49.4002 6.84392 49.8176 6.86197 50.1283 6.89799C50.4379 6.93443 50.7367 7.04697 51.0229 7.23661C51.3093 7.42633 51.4524 7.70184 51.4524 8.06306C51.4524 8.82162 51.1896 9.33629 50.665 9.60733Z" fill="#009CDE"/>
</g>
<defs>
<clipPath id="clip0_118_1131">
<rect width="77" height="21" fill="white"/>
</clipPath>
</defs>
</svg>
