<svg width="91" height="59" viewBox="0 0 91 59" fill="none" xmlns="http://www.w3.org/2000/svg">
<path d="M90.8414 0H0V58.2317H90.8414V0Z" fill="#16366F"/>
<path d="M52.2939 29.1156C52.2939 40.6622 42.9338 50.0208 31.3876 50.0208C19.8414 50.0208 10.4824 40.6617 10.4824 29.1156C10.4824 17.5703 19.8417 8.21045 31.3876 8.21045C42.9334 8.21045 52.2939 17.5706 52.2939 29.1156Z" fill="#D9222A"/>
<path d="M59.4531 8.21021C54.0515 8.21021 49.1294 10.2595 45.4192 13.6218C44.6634 14.3076 43.9578 15.047 43.3083 15.8341H47.532C48.1103 16.5372 48.6426 17.2769 49.1258 18.0484H41.7146C41.2689 18.7613 40.8668 19.5006 40.5103 20.2622H50.3296C50.6665 20.9825 50.9621 21.7215 51.2147 22.4755H39.6252C39.3816 23.2016 39.1789 23.9407 39.0176 24.6893H51.8216C52.1347 26.1439 52.2925 27.6278 52.2922 29.1159C52.2922 31.4374 51.9132 33.6711 51.2144 35.7566H39.6249C39.877 36.5112 40.1723 37.2502 40.5095 37.9706H50.3293C49.9725 38.7322 49.57 39.4717 49.1243 40.1849H41.7143C42.1981 40.9569 42.731 41.6965 43.3081 42.3972H47.5308C46.8821 43.1859 46.1763 43.9259 45.4193 44.6114C49.1299 47.9734 54.0514 50.0216 59.4532 50.0216C70.9991 50.0215 80.3595 40.6624 80.3595 29.1164C80.3595 17.5714 70.9994 8.21125 59.4532 8.21125" fill="#EE9F2D"/>
<path d="M77.574 40.7688C77.574 40.396 77.8758 40.0932 78.249 40.0932C78.6221 40.0932 78.924 40.396 78.924 40.7688C78.924 41.1414 78.6221 41.4442 78.249 41.4442C77.8761 41.4441 77.5738 41.1416 77.574 40.7688ZM78.249 41.2822C78.5326 41.2821 78.7622 41.0522 78.7624 40.7688C78.7624 40.4855 78.5327 40.2559 78.2495 40.2559H78.249C77.9661 40.2554 77.7365 40.4845 77.7361 40.7674V40.7689C77.7357 41.0522 77.9652 41.2821 78.2484 41.2823C78.2485 41.2822 78.2487 41.2822 78.249 41.2822ZM78.1578 41.0656H78.0194V40.4723H78.2697C78.3221 40.4723 78.3755 40.4723 78.4217 40.5019C78.4698 40.5343 78.4969 40.5916 78.4969 40.6507C78.4969 40.7171 78.4577 40.7793 78.3941 40.8035L78.5032 41.0656H78.3501L78.2592 40.8308H78.1579L78.1578 41.0656ZM78.1578 40.729H78.2344C78.2631 40.729 78.2931 40.7313 78.3189 40.7173C78.3417 40.7028 78.3533 40.6755 78.3533 40.6493C78.3533 40.6266 78.3394 40.6004 78.3198 40.5892C78.2957 40.574 78.2574 40.5775 78.2315 40.5775H78.1578V40.729ZM26.5063 31.4046C26.2681 31.377 26.1633 31.3695 25.9997 31.3695C24.7133 31.3695 24.0621 31.8108 24.0621 32.6818C24.0621 33.2188 24.38 33.5607 24.8758 33.5607C25.8003 33.5607 26.4666 32.6802 26.5063 31.4046ZM28.1567 35.2474H26.2763L26.3195 34.3534C25.7459 35.06 24.9806 35.3958 23.9407 35.3958C22.7106 35.3958 21.8672 34.435 21.8672 33.0398C21.8672 30.9407 23.3342 29.716 25.8522 29.716C26.1094 29.716 26.4393 29.7393 26.7771 29.7822C26.8475 29.498 26.8659 29.3763 26.8659 29.2232C26.8659 28.6516 26.4704 28.4385 25.4101 28.4385C24.2999 28.4259 23.3841 28.703 23.0081 28.8268C23.0318 28.6835 23.3225 26.8867 23.3225 26.8867C24.4536 26.5553 25.1996 26.4305 26.039 26.4305C27.9878 26.4305 29.02 27.3054 29.0182 28.9592C29.0219 29.4023 28.9486 29.9491 28.8342 30.6678C28.6371 31.9176 28.2146 34.5947 28.1567 35.2474ZM20.9176 35.2474H18.6479L19.948 27.0953L17.0451 35.2474H15.4985L15.3075 27.1419L13.9409 35.2474H11.8164L13.5911 24.6429H16.8544L17.0524 30.5786L19.043 24.6429H22.6728L20.9176 35.2474ZM62.2597 31.4046C62.0225 31.377 61.9171 31.3695 61.754 31.3695C60.4682 31.3695 59.8168 31.8108 59.8168 32.6818C59.8168 33.2188 60.1343 33.5607 60.6301 33.5607C61.5547 33.5607 62.2214 32.6802 62.2597 31.4046ZM63.9115 35.2474H62.0312L62.0737 34.3534C61.5002 35.06 60.7344 35.3958 59.6955 35.3958C58.465 35.3958 57.6225 34.435 57.6225 33.0398C57.6225 30.9407 59.0884 29.716 61.607 29.716C61.8641 29.716 62.1936 29.7393 62.531 29.7822C62.6013 29.498 62.6198 29.3763 62.6198 29.2232C62.6198 28.6516 62.2248 28.4385 61.1645 28.4385C60.0543 28.4259 59.1394 28.703 58.7619 28.8268C58.7857 28.6835 59.0774 26.8867 59.0774 26.8867C60.2086 26.5553 60.9539 26.4305 61.7924 26.4305C63.7421 26.4305 64.7743 27.3054 64.7724 28.9592C64.7762 29.4023 64.7029 29.9491 64.5884 30.6678C64.3925 31.9176 63.9688 34.5947 63.9115 35.2474ZM38.2442 35.1164C37.6229 35.312 37.1387 35.3958 36.6137 35.3958C35.4534 35.3958 34.8201 34.729 34.8201 33.5013C34.8036 33.1204 34.987 32.1178 35.1311 31.2026C35.2621 30.3971 36.1152 25.3177 36.1152 25.3177H38.3712L38.1078 26.6232H39.4704L39.1626 28.6958H37.7951C37.533 30.3359 37.1599 32.3789 37.1556 32.6497C37.1556 33.0942 37.3928 33.2883 37.9324 33.2883C38.1911 33.2883 38.3914 33.2619 38.5444 33.2067L38.2442 35.1164ZM45.161 35.0465C44.3861 35.2833 43.6383 35.3979 42.8459 35.3959C40.3206 35.3935 39.0041 34.0745 39.0041 31.5489C39.0041 28.6008 40.6788 26.4307 42.9522 26.4307C44.8121 26.4307 46 27.6457 46 29.5514C46 30.1837 45.9185 30.8009 45.722 31.6724H41.2295C41.0776 32.9235 41.8782 33.4447 43.1904 33.4447C43.998 33.4447 44.7263 33.2781 45.5362 32.9016L45.161 35.0465ZM43.8931 29.9338C43.9056 29.7541 44.1323 28.3945 42.8434 28.3945C42.1247 28.3945 41.6109 28.9423 41.4016 29.9338H43.8931ZM29.5192 29.3495C29.5192 30.4404 30.048 31.1925 31.2476 31.7575C32.1668 32.1894 32.309 32.3175 32.309 32.709C32.309 33.2467 31.9037 33.4893 31.0055 33.4893C30.3286 33.4893 29.6988 33.3836 28.9723 33.1492C28.9723 33.1492 28.6738 35.0499 28.6602 35.1408C29.1761 35.2533 29.6361 35.3576 31.022 35.3959C33.4168 35.3959 34.5227 34.4841 34.5227 32.5134C34.5227 31.3284 34.0597 30.633 32.9228 30.1104C31.9712 29.6737 31.862 29.5761 31.862 29.1734C31.862 28.7071 32.2391 28.4692 32.9728 28.4692C33.4183 28.4692 34.0268 28.5168 34.6033 28.5989L34.9265 26.5986C34.3388 26.5054 33.4479 26.4307 32.9291 26.4307C30.3902 26.4307 29.5114 27.7568 29.5192 29.3495ZM56.1998 26.6573C56.8302 26.6573 57.4179 26.8227 58.2278 27.2303L58.5989 24.9288C58.2665 24.7983 57.0961 24.032 56.1048 24.032C54.5858 24.032 53.3019 24.7855 52.3989 26.0293C51.0817 25.5931 50.5402 26.4748 49.8764 27.3532L49.2869 27.4905C49.3315 27.2013 49.3719 26.914 49.3583 26.6233H47.274C46.9893 29.2923 46.4845 31.9957 46.0895 34.668L45.9865 35.2475H48.2571C48.6361 32.7851 48.8438 31.2085 48.97 30.1415L49.825 29.6659C49.9527 29.1907 50.3525 29.0302 51.1546 29.0496C51.0467 29.6328 50.9928 30.2247 50.9935 30.818C50.9935 33.6393 52.5158 35.3959 54.9591 35.3959C55.5885 35.3959 56.1286 35.313 56.9647 35.0865L57.3643 32.6687C56.612 33.039 55.9946 33.2133 55.4356 33.2133C54.1163 33.2133 53.3179 32.2394 53.3179 30.6296C53.3178 28.2945 54.5052 26.6573 56.1998 26.6573Z" fill="black"/>
<path d="M21.5709 34.6175H19.3009L20.6018 26.4664L17.6989 34.6175H16.1521L15.9608 26.513L14.5944 34.6175H12.4697L14.2444 24.0144H17.5077L17.5995 30.5785L19.8011 24.0144H23.3261L21.5709 34.6175Z" fill="white"/>
<path d="M75.4121 24.6436L74.9091 27.7075C74.2884 26.8908 73.6217 26.2998 72.7415 26.2998C71.5962 26.2998 70.5539 27.1679 69.8716 28.4456C68.9215 28.2486 67.9387 27.9142 67.9387 27.9142L67.9382 27.922C68.0149 27.2077 68.0454 26.7719 68.0386 26.6239H65.9539C65.6701 29.2929 65.1655 31.9964 64.771 34.6686L64.667 35.2481H66.9371C67.2437 33.257 67.4787 31.6036 67.6514 30.2925C68.4269 29.5917 68.8151 28.9803 69.5988 29.0211C69.2518 29.8603 69.0485 30.8267 69.0485 31.8182C69.0485 33.9743 70.1394 35.3965 71.7893 35.3965C72.621 35.3965 73.2591 35.1098 73.8817 34.445L73.7755 35.2467H75.9223L77.6508 24.6436H75.4121ZM72.5739 33.2551C71.8013 33.2551 71.4113 32.6834 71.4113 31.5551C71.4113 29.8602 72.1416 28.658 73.1713 28.658C73.951 28.658 74.3732 29.2525 74.3732 30.3477C74.3733 32.0575 73.6314 33.2551 72.5739 33.2551Z" fill="black"/>
<path d="M27.1577 30.7764C26.9199 30.749 26.8146 30.7415 26.6515 30.7415C25.3651 30.7415 24.7143 31.1827 24.7143 32.0537C24.7143 32.5899 25.0322 32.9326 25.5272 32.9326C26.4525 32.9325 27.1188 32.0523 27.1577 30.7764ZM28.809 34.6179H26.9286L26.9713 33.7254C26.3982 34.4305 25.632 34.7678 24.593 34.7678C23.3624 34.7678 22.5195 33.8069 22.5195 32.4118C22.5195 30.3117 23.9859 29.0877 26.5044 29.0877C26.7617 29.0877 27.0917 29.111 27.4289 29.1542C27.4993 28.8698 27.5177 28.7481 27.5177 28.5943C27.5177 28.0227 27.1227 27.8105 26.0623 27.8105C24.9516 27.7979 24.0365 28.0751 23.6598 28.1974C23.6836 28.0546 23.9743 26.2596 23.9743 26.2596C25.105 25.9268 25.8518 25.8019 26.6903 25.8019C28.6397 25.8019 29.6722 26.6775 29.6704 28.3298C29.6738 28.7747 29.5999 29.3211 29.4859 30.0389C29.2894 31.2879 28.8663 33.9666 28.809 34.6179ZM59.2502 24.3001L58.8785 26.6023C58.0691 26.1951 57.4809 26.0292 56.8512 26.0292C55.1565 26.0292 53.9687 27.6664 53.9687 30.0014C53.9687 31.611 54.7673 32.5846 56.0864 32.5846C56.6454 32.5846 57.2622 32.4109 58.0143 32.0399L57.616 34.4566C56.7793 34.6847 56.2399 34.7678 55.6098 34.7678C53.1669 34.7678 51.6442 33.011 51.6442 30.1897C51.6442 26.3988 53.7474 23.7493 56.7556 23.7493C57.7463 23.7494 58.9174 24.1696 59.2502 24.3001ZM62.9121 30.7764C62.6744 30.749 62.5695 30.7415 62.4059 30.7415C61.1199 30.7415 60.4687 31.1827 60.4687 32.0537C60.4687 32.5899 60.7865 32.9326 61.282 32.9326C62.2064 32.9325 62.8732 32.0523 62.9121 30.7764ZM64.5634 34.6179H62.6825L62.7256 33.7254C62.1521 34.4305 61.3863 34.7678 60.3474 34.7678C59.1172 34.7678 58.2739 33.8069 58.2739 32.4118C58.2739 30.3117 59.7408 29.0877 62.2584 29.0877C62.5161 29.0877 62.8456 29.111 63.1832 29.1542C63.2532 28.8698 63.2721 28.7481 63.2721 28.5943C63.2721 28.0227 62.877 27.8105 61.8167 27.8105C60.7065 27.7979 59.7907 28.0751 59.4142 28.1974C59.438 28.0546 59.7291 26.2596 59.7291 26.2596C60.8599 25.9268 61.606 25.8019 62.4446 25.8019C64.3944 25.8019 65.4265 26.6775 65.4241 28.3298C65.428 28.7747 65.3548 29.3211 65.2402 30.0389C65.0443 31.2879 64.6201 33.9666 64.5634 34.6179ZM38.896 34.4872C38.2744 34.6829 37.7901 34.7678 37.2655 34.7678C36.1052 34.7678 35.472 34.1009 35.472 32.8734C35.4559 32.4912 35.6394 31.4897 35.7835 30.5746C35.914 29.768 36.7672 24.6894 36.7672 24.6894H39.0227L38.7597 25.9951H39.9175L39.6094 28.0668H38.4476C38.1856 29.7079 37.8114 31.7493 37.8076 32.0206C37.8076 32.4667 38.0454 32.6592 38.5845 32.6592C38.843 32.6592 39.0431 32.6339 39.1964 32.5786L38.896 34.4872ZM45.813 34.4184C45.0385 34.6551 44.2897 34.7693 43.4977 34.7678C40.9723 34.7653 39.656 33.4464 39.656 30.9206C39.656 27.9716 41.3307 25.8021 43.6041 25.8021C45.464 25.8021 46.6519 27.0166 46.6519 28.9233C46.6519 29.556 46.5704 30.1733 46.3745 31.0443H41.8819C41.7298 32.2952 42.5305 32.817 43.8428 32.817C44.6499 32.817 45.3787 32.65 46.188 32.2724L45.813 34.4184ZM44.5445 29.3042C44.5581 29.1251 44.7843 27.7649 43.4948 27.7649C42.7767 27.7649 42.2628 28.3143 42.0536 29.3042H44.5445ZM30.1706 28.7214C30.1706 29.8121 30.6996 30.5634 31.8991 31.1293C32.8182 31.5612 32.9604 31.6897 32.9604 32.0808C32.9604 32.6185 32.5547 32.8611 31.6575 32.8611C30.98 32.8611 30.3502 32.7554 29.6232 32.5211C29.6232 32.5211 29.3258 34.4217 29.3123 34.5126C29.827 34.6252 30.2875 34.728 31.6734 34.7678C34.0687 34.7678 35.1742 33.856 35.1742 31.8858C35.1742 30.7002 34.7117 30.0049 33.5742 29.4823C32.6231 29.0446 32.513 28.9485 32.513 28.5452C32.513 28.0794 32.8909 27.8397 33.6242 27.8397C34.0692 27.8397 34.6777 27.8886 35.2552 27.9707L35.5779 25.9699C34.9908 25.8767 34.0998 25.8021 33.581 25.8021C31.0416 25.8021 30.1634 27.1273 30.1706 28.7214ZM76.5754 34.6179H74.4282L74.535 33.8151C73.9123 34.4809 73.2743 34.7678 72.4425 34.7678C70.7924 34.7678 69.7021 33.3454 69.7021 31.1894C69.7021 28.3209 71.3933 25.9028 73.3951 25.9028C74.2753 25.9028 74.9417 26.2624 75.5617 27.0786L76.0654 24.0147H78.304L76.5754 34.6179ZM73.2277 32.6253C74.2846 32.6253 75.0271 31.4277 75.0271 29.7192C75.0271 28.6238 74.6043 28.0294 73.8246 28.0294C72.7953 28.0294 72.0641 29.231 72.0641 30.9264C72.064 32.0545 72.4551 32.6253 73.2277 32.6253ZM66.6076 25.9951C66.3235 28.6641 65.8188 31.3676 65.4241 34.0385L65.3203 34.6179H67.5903C68.4021 29.345 68.5986 28.3152 69.8716 28.4443C70.0744 27.3651 70.4518 26.4198 70.7333 25.9427C69.7826 25.7448 69.2518 26.282 68.5568 27.3024C68.6117 26.8614 68.7122 26.4329 68.6923 25.9951H66.6076ZM47.9245 25.9951C47.6396 28.6641 47.1349 31.3676 46.7404 34.0385L46.6371 34.6179H48.9082C49.719 29.345 49.9151 28.3152 51.1872 28.4443C51.391 27.3651 51.7686 26.4198 52.0491 25.9427C51.0994 25.7448 50.5681 26.282 49.8738 27.3024C49.9285 26.8614 50.0281 26.4329 50.0091 25.9951H47.9245ZM77.5726 33.9428C77.5726 33.5685 77.8749 33.2674 78.2476 33.2674C78.6199 33.267 78.9222 33.5686 78.9225 33.9411V33.9428C78.9224 34.3155 78.6203 34.6176 78.2476 34.6179C77.8749 34.6176 77.5728 34.3155 77.5726 33.9428ZM78.2476 34.4557C78.5309 34.4559 78.7604 34.2263 78.7604 33.9432V33.943C78.7608 33.6596 78.5312 33.4298 78.2481 33.4296H78.2476C77.964 33.4297 77.7342 33.6595 77.7341 33.943C77.7345 34.2262 77.9643 34.4557 78.2476 34.4557ZM78.1563 34.238H78.0179V33.6459H78.2688C78.3208 33.6459 78.3746 33.6468 78.4198 33.6754C78.4682 33.7084 78.4959 33.7648 78.4959 33.8238C78.4959 33.8908 78.4566 33.9534 78.3925 33.9772L78.5021 34.2376H78.3485L78.2576 34.0038H78.1563V34.2376V34.238ZM78.1563 33.9025H78.2325C78.261 33.9025 78.2922 33.9046 78.3174 33.8909C78.3401 33.8763 78.3517 33.8489 78.3517 33.8225C78.3507 33.7981 78.3383 33.7755 78.3183 33.7615C78.2945 33.7479 78.2552 33.7516 78.2294 33.7516H78.1562L78.1563 33.9025Z" fill="white"/>
</svg>
