<svg width="91" height="58" viewBox="0 0 91 58" fill="none" xmlns="http://www.w3.org/2000/svg">
<path d="M4.66667 0H86.3333C88.9107 0 91 2.07744 91 4.64V53.36C91 55.9227 88.9107 58 86.3333 58H4.66667C2.08938 58 0 55.9227 0 53.36V4.64C0 2.07744 2.08938 0 4.66667 0Z" fill="#0E4595"/>
<path d="M34.2064 40.4527L38.0985 17.7445H44.3238L40.4289 40.4527H34.2064ZM62.9192 18.2341C61.6861 17.774 59.7532 17.2803 57.34 17.2803C51.1887 17.2803 46.8557 20.3601 46.819 24.7743C46.7841 28.0373 49.9123 29.8576 52.2734 30.9438C54.6967 32.0569 55.5111 32.7667 55.4997 33.7607C55.4844 35.2827 53.5647 35.9781 51.7755 35.9781C49.2838 35.9781 47.9601 35.634 45.9156 34.7861L45.1134 34.4253L44.2397 39.5088C45.6937 40.1426 48.3826 40.6918 51.1742 40.7202C57.718 40.7202 61.9658 37.6757 62.0144 32.9619C62.0376 30.3787 60.3792 28.4128 56.7876 26.7921C54.6117 25.7417 53.2792 25.0406 53.2933 23.977C53.2933 23.0331 54.4212 22.0237 56.8583 22.0237C58.894 21.9924 60.3688 22.4337 61.5177 22.8937L62.0755 23.1558L62.9192 18.2341ZM78.9387 17.7442H74.1283C72.6381 17.7442 71.5229 18.1487 70.8685 19.6273L61.6234 40.4377H68.1604C68.1604 40.4377 69.229 37.6395 69.4708 37.0253C70.1853 37.0253 76.5355 37.035 77.4435 37.035C77.6297 37.8299 78.2007 40.4377 78.2007 40.4377H83.9773L78.9387 17.7442ZM71.3066 32.4078C71.8214 31.0994 73.7869 26.0599 73.7869 26.0599C73.7501 26.1204 74.2978 24.7451 74.6123 23.8925L75.0328 25.8505C75.0328 25.8505 76.2251 31.2711 76.4741 32.4078H71.3066ZM28.9216 17.7442L22.827 33.2302L22.1775 30.0831C21.0429 26.4555 17.5079 22.5251 13.5561 20.5574L19.1288 40.4166L25.7153 40.4092L35.5158 17.744L28.9216 17.7442Z" fill="white"/>
<path d="M17.1408 17.7433H7.10267L7.02322 18.2158C14.8327 20.0955 20.0001 24.6379 22.1456 30.0954L19.9627 19.66C19.5859 18.2222 18.4928 17.7936 17.1408 17.7433Z" fill="#F2AE14"/>
</svg>
